<svg width="22" height="40" viewBox="0 0 22 40" fill="none" xmlns="http://www.w3.org/2000/svg">
<path d="M12.9675 37.3956L15.3885 39.8752C15.4499 39.9357 15.5274 39.9765 15.6115 39.9925C15.6956 40.0085 15.7824 39.9991 15.8613 39.9655C15.9401 39.9318 16.0074 39.8753 16.0548 39.8031C16.1023 39.7309 16.1277 39.6461 16.128 39.5594V34.1658L12.9675 37.3956Z" fill="#26B7CD"/>
<path d="M19.057 6.92705L21.3923 6.50852C21.5035 6.48887 21.6073 6.43854 21.6922 6.36304C21.7771 6.28754 21.8399 6.18979 21.8736 6.08049C21.9074 5.9712 21.9109 5.85458 21.8836 5.74343C21.8564 5.63227 21.7995 5.53087 21.7192 5.45033L16.6126 0.190986C16.533 0.107162 16.4319 0.0476069 16.3206 0.0190561C16.2094 -0.00949484 16.0925 -0.005903 15.9832 0.0294254C15.8738 0.0647539 15.7764 0.13041 15.7019 0.218969C15.6275 0.307528 15.5789 0.415457 15.5617 0.530553L15.1492 2.9786L19.057 6.92705Z" fill="#26B7CD"/>
<path d="M13.9567 17.9812L2.16322 30.0635C1.86071 30.3815 1.69165 30.8061 1.69165 31.248C1.69165 31.6899 1.86071 32.1146 2.16322 32.4326L8.24288 38.7027C8.55441 39.0133 8.97374 39.1873 9.41054 39.1873C9.84735 39.1873 10.2667 39.0133 10.5782 38.7027L12.5088 36.7206L15.6926 33.4671L21.2118 27.8129C21.5179 27.4968 21.6895 27.0714 21.6895 26.6283C21.6895 26.1852 21.5179 25.7598 21.2118 25.4438L13.9567 17.9812Z" fill="#26B7CD"/>
<path d="M7.70638 23.1706L19.4998 11.0646C19.8023 10.7466 19.9714 10.322 19.9714 9.88008C19.9714 9.43818 19.8023 9.01352 19.4998 8.69555L13.4202 2.47278C13.2702 2.31713 13.0909 2.1936 12.893 2.1095C12.6951 2.0254 12.4826 1.98244 12.2681 1.98317C12.0523 1.98227 11.8386 2.02512 11.6394 2.1092C11.4402 2.19328 11.2596 2.31689 11.1082 2.47278L0.474624 13.3705C0.170298 13.6875 0 14.1126 0 14.5551C0 14.9976 0.170298 15.4226 0.474624 15.7396L7.70638 23.1706Z" fill="#26B7CD"/>
</svg>
